<svg xmlns="http://www.w3.org/2000/svg" width="258.19" height="286.935" viewBox="0 0 258.19 286.935">
  <defs>
    <style>
      .cls-1, .cls-2, .cls-3 {
        fill: none;
        stroke-linecap: round;
      }

      .cls-1, .cls-2 {
        stroke-linejoin: round;
      }

      .cls-2, .cls-3 {
        stroke: #fff;
        stroke-width: 20px;
      }

      .cls-4, .cls-5 {
        stroke: none;
      }

      .cls-5 {
        fill: #fff;
      }
    </style>
  </defs>
  <g id="Grupo_24" data-name="Grupo 24" transform="translate(409.19 -1564.386) rotate(90)">
    <g id="logo" class="cls-1" transform="translate(1583 171)">
      <path class="cls-4" d="M182.06,0a9,9,0,0,1,7.812,4.53l57.277,100.1a9,9,0,0,1,0,8.94l-57.277,100.1a9,9,0,0,1-7.812,4.53H67.646a9,9,0,0,1-7.812-4.53L2.558,113.565a9,9,0,0,1,0-8.94L59.834,4.53A9,9,0,0,1,67.646,0Z"/>
      <path class="cls-5" d="M 67.64599609375 0 C 64.41824340820313 0 61.43759155273438 1.728546142578125 59.83448791503906 4.530044555664063 L 2.55780029296875 104.6252517700195 C 0.97314453125 107.3945465087891 0.97314453125 110.7958526611328 2.55780029296875 113.5651016235352 L 59.83448791503906 213.6602935791016 C 61.43759155273438 216.4618530273438 64.41819763183594 218.1903991699219 67.64599609375 218.1903991699219 L 182.0604400634766 218.1903991699219 C 185.2881927490234 218.1903991699219 188.2688446044922 216.4618530273438 189.8719482421875 213.6603546142578 L 247.1489410400391 113.5651473999023 C 248.733642578125 110.7958526611328 248.733642578125 107.3945465087891 247.1489410400391 104.6252517700195 L 189.8719482421875 4.530044555664063 C 188.2688446044922 1.728500366210938 185.2881927490234 0 182.0604400634766 0 L 67.64599609375 0 M 67.64599609375 -20 L 182.0604400634766 -20 C 192.4340515136719 -20 202.0787963867188 -14.40679931640625 207.2308959960938 -5.403045654296875 L 264.5078430175781 94.69204711914063 C 269.5917053222656 103.5761489868164 269.5917053222656 114.6142501831055 264.5077514648438 123.4985504150391 L 207.2308349609375 223.5935516357422 C 202.0786895751953 232.5972442626953 192.4339447021484 238.1903991699219 182.0604400634766 238.1903991699219 L 67.64599609375 238.1903991699219 C 57.27239990234375 238.1903991699219 47.62763977050781 232.5971527099609 42.47554016113281 223.5933990478516 L -14.80111694335938 123.4982528686523 C -19.88485717773438 114.6142501831055 -19.88485717773438 103.576301574707 -14.8011474609375 94.69210052490234 L 42.4755859375 -5.403106689453125 C 47.62774658203125 -14.40684509277344 57.27249145507813 -20 67.64599609375 -20 Z"/>
    </g>
    <path id="Caminho_43" data-name="Caminho 43" class="cls-2" d="M1929.933,33.836l45.851-80.966-45.851-80.363h77.658" transform="translate(-254.715 326.74)"/>
    <path id="Caminho_44" data-name="Caminho 44" class="cls-3" d="M1712.158,365.819h44.2" transform="translate(-3.476 -5.243)"/>
  </g>
</svg>
